<mxfile host="app.diagrams.net" agent="Mozilla/5.0 (Windows NT 10.0; Win64; x64) AppleWebKit/537.36 (KHTML, like Gecko) Chrome/138.0.0.0 Safari/537.36 OPR/122.0.0.0" version="28.2.7" pages="2">
  <diagram id="NXjarvV826QAVY2hotV8" name="SGO - CASOS DE USO">
    <mxGraphModel dx="1000" dy="539" grid="1" gridSize="10" guides="1" tooltips="1" connect="1" arrows="1" fold="1" page="1" pageScale="1" pageWidth="827" pageHeight="1169" math="0" shadow="1">
      <root>
        <mxCell id="0" />
        <mxCell id="1" parent="0" />
        <mxCell id="zj3VoGH3aGMkNus4gSCq-1" value="Administrator" style="shape=umlActor;verticalLabelPosition=bottom;verticalAlign=top;html=1;outlineConnect=0;" vertex="1" parent="1">
          <mxGeometry x="180" y="180" width="30" height="60" as="geometry" />
        </mxCell>
        <mxCell id="zj3VoGH3aGMkNus4gSCq-2" value="Atleta" style="shape=umlActor;verticalLabelPosition=bottom;verticalAlign=top;html=1;outlineConnect=0;" vertex="1" parent="1">
          <mxGeometry x="180" y="300" width="30" height="60" as="geometry" />
        </mxCell>
        <mxCell id="zj3VoGH3aGMkNus4gSCq-3" value="Sistema" style="shape=umlActor;verticalLabelPosition=bottom;verticalAlign=top;html=1;outlineConnect=0;" vertex="1" parent="1">
          <mxGeometry x="320" y="420" width="30" height="60" as="geometry" />
        </mxCell>
        <mxCell id="zj3VoGH3aGMkNus4gSCq-4" value="" style="rounded=0;whiteSpace=wrap;html=1;" vertex="1" parent="1">
          <mxGeometry x="240" y="160" width="610" height="230" as="geometry" />
        </mxCell>
        <mxCell id="zj3VoGH3aGMkNus4gSCq-7" style="edgeStyle=orthogonalEdgeStyle;rounded=0;orthogonalLoop=1;jettySize=auto;html=1;entryX=0;entryY=0.5;entryDx=0;entryDy=0;" edge="1" parent="1" source="zj3VoGH3aGMkNus4gSCq-5" target="zj3VoGH3aGMkNus4gSCq-6">
          <mxGeometry relative="1" as="geometry" />
        </mxCell>
        <mxCell id="zj3VoGH3aGMkNus4gSCq-8" value="&amp;lt;&amp;lt;include&amp;gt;&amp;gt;&lt;div&gt;&lt;br&gt;&lt;/div&gt;" style="edgeLabel;html=1;align=center;verticalAlign=middle;resizable=0;points=[];" vertex="1" connectable="0" parent="zj3VoGH3aGMkNus4gSCq-7">
          <mxGeometry x="-0.2218" y="-4" relative="1" as="geometry">
            <mxPoint x="7" y="16" as="offset" />
          </mxGeometry>
        </mxCell>
        <mxCell id="zj3VoGH3aGMkNus4gSCq-5" value="Cadastrar Competição" style="ellipse;whiteSpace=wrap;html=1;" vertex="1" parent="1">
          <mxGeometry x="310" y="210" width="110" height="40" as="geometry" />
        </mxCell>
        <mxCell id="zj3VoGH3aGMkNus4gSCq-6" value="Alocar Local" style="ellipse;whiteSpace=wrap;html=1;" vertex="1" parent="1">
          <mxGeometry x="530" y="210" width="110" height="40" as="geometry" />
        </mxCell>
        <mxCell id="zj3VoGH3aGMkNus4gSCq-9" value="&lt;font style=&quot;font-size: 14px;&quot;&gt;Sistema de Competição&lt;/font&gt;" style="text;html=1;whiteSpace=wrap;strokeColor=none;fillColor=none;align=center;verticalAlign=middle;rounded=0;" vertex="1" parent="1">
          <mxGeometry x="450" y="160" width="160" height="30" as="geometry" />
        </mxCell>
        <mxCell id="zj3VoGH3aGMkNus4gSCq-10" style="edgeStyle=orthogonalEdgeStyle;rounded=0;orthogonalLoop=1;jettySize=auto;html=1;entryX=0;entryY=0.5;entryDx=0;entryDy=0;" edge="1" parent="1" source="zj3VoGH3aGMkNus4gSCq-1" target="zj3VoGH3aGMkNus4gSCq-5">
          <mxGeometry relative="1" as="geometry">
            <Array as="points">
              <mxPoint x="260" y="220" />
              <mxPoint x="260" y="230" />
            </Array>
          </mxGeometry>
        </mxCell>
        <mxCell id="zj3VoGH3aGMkNus4gSCq-12" style="edgeStyle=orthogonalEdgeStyle;rounded=0;orthogonalLoop=1;jettySize=auto;html=1;entryX=0.5;entryY=0;entryDx=0;entryDy=0;" edge="1" parent="1" source="zj3VoGH3aGMkNus4gSCq-1" target="zj3VoGH3aGMkNus4gSCq-6">
          <mxGeometry relative="1" as="geometry" />
        </mxCell>
        <mxCell id="zj3VoGH3aGMkNus4gSCq-16" style="edgeStyle=orthogonalEdgeStyle;rounded=0;orthogonalLoop=1;jettySize=auto;html=1;entryX=0;entryY=0.5;entryDx=0;entryDy=0;" edge="1" parent="1" source="zj3VoGH3aGMkNus4gSCq-14" target="zj3VoGH3aGMkNus4gSCq-15">
          <mxGeometry relative="1" as="geometry" />
        </mxCell>
        <mxCell id="zj3VoGH3aGMkNus4gSCq-17" value="&amp;lt;&amp;lt;include&amp;gt;&amp;gt;" style="edgeLabel;html=1;align=center;verticalAlign=middle;resizable=0;points=[];" vertex="1" connectable="0" parent="zj3VoGH3aGMkNus4gSCq-16">
          <mxGeometry x="0.2327" relative="1" as="geometry">
            <mxPoint x="-18" y="10" as="offset" />
          </mxGeometry>
        </mxCell>
        <mxCell id="zj3VoGH3aGMkNus4gSCq-14" value="Registrar Resultados" style="ellipse;whiteSpace=wrap;html=1;" vertex="1" parent="1">
          <mxGeometry x="310" y="270" width="110" height="40" as="geometry" />
        </mxCell>
        <mxCell id="zj3VoGH3aGMkNus4gSCq-15" value="Gerar relatório de medalha" style="ellipse;whiteSpace=wrap;html=1;" vertex="1" parent="1">
          <mxGeometry x="530" y="270" width="130" height="40" as="geometry" />
        </mxCell>
        <mxCell id="zj3VoGH3aGMkNus4gSCq-18" style="edgeStyle=orthogonalEdgeStyle;rounded=0;orthogonalLoop=1;jettySize=auto;html=1;entryX=0;entryY=0.5;entryDx=0;entryDy=0;" edge="1" parent="1" source="zj3VoGH3aGMkNus4gSCq-1" target="zj3VoGH3aGMkNus4gSCq-14">
          <mxGeometry relative="1" as="geometry" />
        </mxCell>
        <mxCell id="zj3VoGH3aGMkNus4gSCq-19" style="edgeStyle=orthogonalEdgeStyle;rounded=0;orthogonalLoop=1;jettySize=auto;html=1;entryX=0.5;entryY=0;entryDx=0;entryDy=0;" edge="1" parent="1" source="zj3VoGH3aGMkNus4gSCq-1" target="zj3VoGH3aGMkNus4gSCq-15">
          <mxGeometry relative="1" as="geometry" />
        </mxCell>
        <mxCell id="zj3VoGH3aGMkNus4gSCq-20" value="Inscrever atleta" style="ellipse;whiteSpace=wrap;html=1;" vertex="1" parent="1">
          <mxGeometry x="310" y="330" width="110" height="40" as="geometry" />
        </mxCell>
        <mxCell id="zj3VoGH3aGMkNus4gSCq-21" style="edgeStyle=orthogonalEdgeStyle;rounded=0;orthogonalLoop=1;jettySize=auto;html=1;entryX=0.5;entryY=1;entryDx=0;entryDy=0;" edge="1" parent="1" source="zj3VoGH3aGMkNus4gSCq-3" target="zj3VoGH3aGMkNus4gSCq-15">
          <mxGeometry relative="1" as="geometry" />
        </mxCell>
        <mxCell id="zj3VoGH3aGMkNus4gSCq-22" style="edgeStyle=orthogonalEdgeStyle;rounded=0;orthogonalLoop=1;jettySize=auto;html=1;" edge="1" parent="1" source="zj3VoGH3aGMkNus4gSCq-2" target="zj3VoGH3aGMkNus4gSCq-20">
          <mxGeometry relative="1" as="geometry" />
        </mxCell>
      </root>
    </mxGraphModel>
  </diagram>
  <diagram id="YPw7cB8IDTZ1W_9xSKGq" name="SGO - DIAGRAMA DE IMPLEMENTAÇÃO">
    <mxGraphModel dx="1000" dy="539" grid="1" gridSize="10" guides="1" tooltips="1" connect="1" arrows="1" fold="1" page="1" pageScale="1" pageWidth="827" pageHeight="1169" math="0" shadow="0">
      <root>
        <mxCell id="0" />
        <mxCell id="1" parent="0" />
        <mxCell id="vKtW2TPsLmf1yZVoY69m-1" value="Internet" style="shape=umlActor;verticalLabelPosition=bottom;verticalAlign=top;html=1;outlineConnect=0;" vertex="1" parent="1">
          <mxGeometry x="160" y="275" width="30" height="60" as="geometry" />
        </mxCell>
        <mxCell id="vKtW2TPsLmf1yZVoY69m-2" value="AWS Cloud" style="points=[[0,0],[0.25,0],[0.5,0],[0.75,0],[1,0],[1,0.25],[1,0.5],[1,0.75],[1,1],[0.75,1],[0.5,1],[0.25,1],[0,1],[0,0.75],[0,0.5],[0,0.25]];outlineConnect=0;gradientColor=none;html=1;whiteSpace=wrap;fontSize=12;fontStyle=0;container=1;pointerEvents=0;collapsible=0;recursiveResize=0;shape=mxgraph.aws4.group;grIcon=mxgraph.aws4.group_aws_cloud_alt;strokeColor=#232F3E;fillColor=none;verticalAlign=top;align=left;spacingLeft=30;fontColor=#232F3E;dashed=0;" vertex="1" parent="1">
          <mxGeometry x="284" y="150" width="526" height="310" as="geometry" />
        </mxCell>
        <mxCell id="vKtW2TPsLmf1yZVoY69m-4" value="VPC" style="points=[[0,0],[0.25,0],[0.5,0],[0.75,0],[1,0],[1,0.25],[1,0.5],[1,0.75],[1,1],[0.75,1],[0.5,1],[0.25,1],[0,1],[0,0.75],[0,0.5],[0,0.25]];outlineConnect=0;gradientColor=none;html=1;whiteSpace=wrap;fontSize=12;fontStyle=0;container=1;pointerEvents=0;collapsible=0;recursiveResize=0;shape=mxgraph.aws4.group;grIcon=mxgraph.aws4.group_vpc2;strokeColor=#8C4FFF;fillColor=none;verticalAlign=top;align=left;spacingLeft=30;fontColor=#AAB7B8;dashed=0;" vertex="1" parent="vKtW2TPsLmf1yZVoY69m-2">
          <mxGeometry x="36" y="35" width="454" height="255" as="geometry" />
        </mxCell>
        <mxCell id="vKtW2TPsLmf1yZVoY69m-5" value="Public subnet" style="points=[[0,0],[0.25,0],[0.5,0],[0.75,0],[1,0],[1,0.25],[1,0.5],[1,0.75],[1,1],[0.75,1],[0.5,1],[0.25,1],[0,1],[0,0.75],[0,0.5],[0,0.25]];outlineConnect=0;gradientColor=none;html=1;whiteSpace=wrap;fontSize=12;fontStyle=0;container=1;pointerEvents=0;collapsible=0;recursiveResize=0;shape=mxgraph.aws4.group;grIcon=mxgraph.aws4.group_security_group;grStroke=0;strokeColor=#7AA116;fillColor=#F2F6E8;verticalAlign=top;align=left;spacingLeft=30;fontColor=#248814;dashed=0;" vertex="1" parent="vKtW2TPsLmf1yZVoY69m-4">
          <mxGeometry x="29" y="45" width="130" height="165" as="geometry" />
        </mxCell>
        <mxCell id="vKtW2TPsLmf1yZVoY69m-6" value="ALB" style="outlineConnect=0;dashed=0;verticalLabelPosition=bottom;verticalAlign=top;align=center;html=1;shape=mxgraph.aws3.application_load_balancer;fillColor=#F58534;gradientColor=none;" vertex="1" parent="vKtW2TPsLmf1yZVoY69m-5">
          <mxGeometry x="40" y="39.5" width="49" height="51" as="geometry" />
        </mxCell>
        <mxCell id="vKtW2TPsLmf1yZVoY69m-7" value="Private subnet" style="points=[[0,0],[0.25,0],[0.5,0],[0.75,0],[1,0],[1,0.25],[1,0.5],[1,0.75],[1,1],[0.75,1],[0.5,1],[0.25,1],[0,1],[0,0.75],[0,0.5],[0,0.25]];outlineConnect=0;gradientColor=none;html=1;whiteSpace=wrap;fontSize=12;fontStyle=0;container=1;pointerEvents=0;collapsible=0;recursiveResize=0;shape=mxgraph.aws4.group;grIcon=mxgraph.aws4.group_security_group;grStroke=0;strokeColor=#00A4A6;fillColor=#E6F6F7;verticalAlign=top;align=left;spacingLeft=30;fontColor=#147EBA;dashed=0;" vertex="1" parent="vKtW2TPsLmf1yZVoY69m-4">
          <mxGeometry x="180" y="45" width="240" height="175" as="geometry" />
        </mxCell>
        <mxCell id="vKtW2TPsLmf1yZVoY69m-9" value="EC2 &lt;br&gt;APLICAÇÃO" style="sketch=0;points=[[0,0,0],[0.25,0,0],[0.5,0,0],[0.75,0,0],[1,0,0],[0,1,0],[0.25,1,0],[0.5,1,0],[0.75,1,0],[1,1,0],[0,0.25,0],[0,0.5,0],[0,0.75,0],[1,0.25,0],[1,0.5,0],[1,0.75,0]];outlineConnect=0;fontColor=#232F3E;fillColor=#ED7100;strokeColor=#ffffff;dashed=0;verticalLabelPosition=bottom;verticalAlign=top;align=center;html=1;fontSize=12;fontStyle=0;aspect=fixed;shape=mxgraph.aws4.resourceIcon;resIcon=mxgraph.aws4.ec2;" vertex="1" parent="vKtW2TPsLmf1yZVoY69m-7">
          <mxGeometry x="25" y="39.5" width="44" height="44" as="geometry" />
        </mxCell>
        <mxCell id="vKtW2TPsLmf1yZVoY69m-11" value="RDS" style="sketch=0;points=[[0,0,0],[0.25,0,0],[0.5,0,0],[0.75,0,0],[1,0,0],[0,1,0],[0.25,1,0],[0.5,1,0],[0.75,1,0],[1,1,0],[0,0.25,0],[0,0.5,0],[0,0.75,0],[1,0.25,0],[1,0.5,0],[1,0.75,0]];outlineConnect=0;fontColor=#232F3E;fillColor=#C925D1;strokeColor=#ffffff;dashed=0;verticalLabelPosition=bottom;verticalAlign=top;align=center;html=1;fontSize=12;fontStyle=0;aspect=fixed;shape=mxgraph.aws4.resourceIcon;resIcon=mxgraph.aws4.rds;" vertex="1" parent="vKtW2TPsLmf1yZVoY69m-7">
          <mxGeometry x="150" y="39.5" width="47" height="47" as="geometry" />
        </mxCell>
        <mxCell id="vKtW2TPsLmf1yZVoY69m-12" style="edgeStyle=orthogonalEdgeStyle;rounded=0;orthogonalLoop=1;jettySize=auto;html=1;entryX=0;entryY=0.5;entryDx=0;entryDy=0;entryPerimeter=0;" edge="1" parent="vKtW2TPsLmf1yZVoY69m-7" source="vKtW2TPsLmf1yZVoY69m-9" target="vKtW2TPsLmf1yZVoY69m-11">
          <mxGeometry relative="1" as="geometry" />
        </mxCell>
        <mxCell id="vKtW2TPsLmf1yZVoY69m-10" style="edgeStyle=orthogonalEdgeStyle;rounded=0;orthogonalLoop=1;jettySize=auto;html=1;entryX=0;entryY=0.5;entryDx=0;entryDy=0;entryPerimeter=0;" edge="1" parent="vKtW2TPsLmf1yZVoY69m-4" source="vKtW2TPsLmf1yZVoY69m-6" target="vKtW2TPsLmf1yZVoY69m-9">
          <mxGeometry relative="1" as="geometry" />
        </mxCell>
        <mxCell id="vKtW2TPsLmf1yZVoY69m-8" style="edgeStyle=orthogonalEdgeStyle;rounded=0;orthogonalLoop=1;jettySize=auto;html=1;entryX=0;entryY=0.5;entryDx=0;entryDy=0;entryPerimeter=0;" edge="1" parent="1" source="vKtW2TPsLmf1yZVoY69m-1" target="vKtW2TPsLmf1yZVoY69m-6">
          <mxGeometry relative="1" as="geometry" />
        </mxCell>
      </root>
    </mxGraphModel>
  </diagram>
</mxfile>
